<?xml version="1.0" encoding="UTF-8"?>
<svg xmlns="http://www.w3.org/2000/svg" version="1.1" viewBox="0 0 326.6 317.9">
  <defs>
    <style>
      .cls-1 {
        fill: #354852;
      }

      .cls-2 {
        stroke: #f7f7f7;
      }

      .cls-2, .cls-3 {
        fill: #f7f7f7;
      }

      .cls-4 {
        fill: none;
        stroke: #354852;
        stroke-miterlimit: 10;
        stroke-width: 2px;
      }
    </style>
  </defs>
  <!-- Generator: Adobe Illustrator 28.7.1, SVG Export Plug-In . SVG Version: 1.2.0 Build 142)  -->
  <g>
    <g id="app-logo">
      <g id="circles">
        <circle class="cls-4" cx="162.4" cy="158.9" r="157.9"/>
        <circle class="cls-1" cx="4.5" cy="158.9" r="4.5"/>
        <circle class="cls-1" cx="239.7" cy="22.1" r="4.5"/>
        <circle class="cls-1" cx="239.7" cy="295.9" r="4.5"/>
        <circle id="earth" class="cls-1" cx="320.3" cy="158.8" r="6.3"/>
      </g>
      <g id="title">
        <path class="cls-3" d="M26.7,131.5v40.6c0,1.3-1.1,2.4-2.4,2.4h-1.5c-1.3,0-2.4-1.1-2.4-2.4v-40.6c0-1.3,1.1-2.4,2.4-2.4h1.5c1.3,0,2.4,1.1,2.4,2.4Z"/>
        <path class="cls-3" d="M56.1,142.8c7.9,0,11,4.4,11,10.4v14.9c0,4.6-1.2,6.4-6.5,6.4h-14.8c-7.5,0-10.6-3.7-10.6-9.7s2.9-9.1,10.7-9.1h12.7c1.3,0,2.4-1.1,2.4-2.4h0c0-2.5-1.4-4.4-4.9-4.4h-16.6c-1.3,0-2.4-1.1-2.4-2.4v-1.3c0-1.3,1.1-2.4,2.4-2.4h16.6,0ZM60.9,166.7v-3.5c0-1.3-1.1-2.4-2.4-2.4h-12.5c-3.4,0-4.6,1.4-4.6,3.7s1.3,3.8,4.4,3.8h13.3c1.3,0,1.7-.5,1.7-1.6h0Z"/>
        <path class="cls-3" d="M97.2,142.8c7.6,0,11.6,4.4,11.6,13.6v18.2c0,9-3.1,12.5-12,12.5h-17.4c-.8,0-1.4-.6-1.4-1.4v-3.2c0-.8.6-1.4,1.4-1.4h16.7c4.7,0,6.3-1.9,6.3-6.4h0c0-.8-.6-1.4-1.4-1.4h-12.5c-8.5,0-13.7-5-13.7-15.2s5.3-15.1,13.7-15.1h8.8ZM89,167.4h11.9c.8,0,1.4-.6,1.4-1.4v-9.7c0-5.2-2-7.4-7.1-7.4h-6.3c-5.5,0-7.9,2.8-7.9,9.2s2.5,9.2,7.9,9.2Z"/>
        <path class="cls-3" d="M139.2,145.2v1.4c0,1.3-1.1,2.4-2.4,2.4h-8.8c-2.8,0-4.1,1.3-4.1,4.1v19.1c0,1.3-1.1,2.4-2.4,2.4h-1.6c-1.3,0-2.4-1.1-2.4-2.4v-20.1c0-6.4,2.3-9.2,8.6-9.2h10.6c1.3,0,2.4,1.1,2.4,2.4h0Z"/>
        <path class="cls-3" d="M165.7,142.8c7.9,0,11,4.4,11,10.4v14.9c0,4.6-1.2,6.4-6.5,6.4h-14.8c-7.5,0-10.6-3.7-10.6-9.7s2.9-9.1,10.7-9.1h12.7c1.3,0,2.4-1.1,2.4-2.4h0c0-2.5-1.4-4.4-4.9-4.4h-16.6c-1.3,0-2.4-1.1-2.4-2.4v-1.3c0-1.3,1.1-2.4,2.4-2.4h16.6ZM170.5,166.7v-3.5c0-1.3-1.1-2.4-2.4-2.4h-12.5c-3.4,0-4.6,1.4-4.6,3.7s1.3,3.8,4.4,3.8h13.3c1.3,0,1.7-.5,1.7-1.6h0Z"/>
        <path class="cls-3" d="M203.3,142.8c10.7,0,16,5.1,16,13.9v15.4c0,1.3-1.1,2.4-2.4,2.4h-1.6c-1.3,0-2.4-1.1-2.4-2.4v-15.4c0-5-2.9-7.7-9.5-7.7h-10.4c-.5,0-.8.3-.8.9v22.2c0,1.3-1.1,2.4-2.4,2.4h-1.6c-1.3,0-2.4-1.1-2.4-2.4v-24.4c0-3.7,1.3-4.9,4.4-4.9h13.1Z"/>
        <path class="cls-1" d="M312.3,158.9l-8.4-12.1c-.3-.4-.5-.8-.8-1.2h0c-4-5.4-10.5-8.9-17.8-8.9-12.3,0-22.2,9.9-22.2,22.2s10,22.2,22.2,22.2,14.7-4,18.6-10.1l8.4-12.1h0Z"/>
        <path class="cls-3" d="M249.2,142.8c7.6,0,11.6,4.4,11.6,13.6v18.2c0,9-3.1,12.5-12,12.5h-17.4c-.8,0-1.4-.6-1.4-1.4v-3.2c0-.8.6-1.4,1.4-1.4h16.7c4.7,0,6.3-1.9,6.3-6.4h0c0-.8-.6-1.4-1.4-1.4h-12.5c-8.5,0-13.7-5-13.7-15.2s5.3-15.1,13.7-15.1h8.8ZM241,167.4h11.9c.8,0,1.4-.6,1.4-1.4v-9.7c0-5.2-2-7.4-7.1-7.4h-6.3c-5.5,0-7.9,2.8-7.9,9.2s2.5,9.2,7.9,9.2Z"/>
        <path class="cls-3" d="M290.4,142.8c7.5,0,10.7,3.6,10.7,9.7s-2.9,9.1-10.7,9.1h-12.8c-1.3,0-2.3,1-2.3,2.3h0c0,2.5,1.4,4.4,4.9,4.4h17.1c1.3,0,2.3,1,2.3,2.3v1.6c0,1.3-1,2.3-2.3,2.3h-17.1c-7.9,0-11-4.4-11-10.4v-10.8c0-6,3.1-10.4,11-10.4h10.3ZM275.2,154.4c0,1.3,1,2.3,2.3,2.3h12.6c3.4,0,4.7-1.4,4.7-3.8s-1.4-4-4.5-4h-10.2c-3.5,0-4.9,1.9-4.9,4.4v1.1Z"/>
      </g>
      <g id="subtitle">
        <path class="cls-2" d="M43.1,127.5c-.6.5-1.5.8-2.7.8h-2.3v4.7h-.7v-10.8h3c1.2,0,2.1.3,2.7.8.6.6.9,1.3.9,2.2s-.3,1.7-.9,2.2h0ZM43.3,125.3c0-.8-.2-1.4-.7-1.8s-1.2-.6-2.2-.6h-2.3v4.8h2.3c1.9,0,2.8-.8,2.8-2.4Z"/>
        <path class="cls-2" d="M47.7,125c.5-.3,1.2-.5,2-.5v.7h-.2c-.8,0-1.5.2-2,.7s-.8,1.2-.8,2.3v4.8h-.7v-8.4h.7v1.7c.2-.6.6-1.1,1.1-1.4h0Z"/>
        <path class="cls-2" d="M52.8,132.7c-.6-.4-1.1-.9-1.5-1.5-.3-.6-.5-1.4-.5-2.3s.2-1.6.5-2.3c.4-.7.8-1.2,1.5-1.5.6-.3,1.3-.5,2.1-.5s1.5.2,2.1.5c.6.3,1.1.8,1.5,1.5.3.7.5,1.4.5,2.3s-.2,1.6-.5,2.3-.8,1.1-1.5,1.5c-.6.4-1.3.5-2.1.5s-1.5-.2-2.1-.5h0ZM56.7,132.2c.5-.3,1-.7,1.3-1.2s.5-1.2.5-2.1-.2-1.5-.5-2c-.3-.6-.7-1-1.3-1.2-.5-.3-1.1-.4-1.7-.4s-1.2.1-1.7.4c-.5.3-.9.7-1.2,1.2-.3.6-.5,1.2-.5,2s.2,1.5.5,2.1c.3.6.7,1,1.2,1.2s1.1.4,1.7.4,1.2-.1,1.7-.4h0Z"/>
        <path class="cls-2" d="M61.3,126.6c.3-.7.8-1.1,1.4-1.5.6-.3,1.3-.5,2.1-.5s1.9.3,2.6.8c.7.5,1.1,1.2,1.2,2.1h-.7c-.1-.7-.5-1.3-1-1.7s-1.2-.6-2.1-.6-1.2.1-1.7.4c-.5.3-.9.7-1.2,1.2-.3.6-.5,1.2-.5,2s.2,1.5.5,2.1c.3.6.7,1,1.2,1.2s1.1.4,1.7.4,1.5-.2,2.1-.6c.6-.4.9-1,1-1.7h.7c-.2.9-.6,1.6-1.3,2.1s-1.5.8-2.6.8-1.5-.2-2.1-.5-1.1-.9-1.4-1.5-.5-1.4-.5-2.3.2-1.6.5-2.3h0Z"/>
        <path class="cls-2" d="M78.3,129.2h-7.2c0,.8.2,1.4.5,1.9s.7.9,1.2,1.1c.5.3,1.1.4,1.7.4s1.5-.2,2.1-.6.9-1,1.1-1.7h.7c-.2.9-.6,1.5-1.3,2.1-.7.5-1.5.8-2.6.8s-1.5-.2-2.1-.5-1.1-.9-1.4-1.5-.5-1.4-.5-2.3.2-1.6.5-2.3c.3-.7.8-1.1,1.4-1.5.6-.3,1.3-.5,2.1-.5s1.5.2,2.1.5c.6.3,1,.8,1.3,1.4s.5,1.2.5,1.8,0,.6,0,.8h0ZM77.2,126.7c-.3-.5-.7-.9-1.2-1.2s-1.1-.4-1.6-.4-1.1.1-1.6.4c-.5.2-.9.6-1.2,1.2-.3.5-.5,1.1-.5,1.9h6.6c0-.7,0-1.4-.4-1.9h0Z"/>
        <path class="cls-2" d="M80.5,126.6c.3-.7.8-1.1,1.4-1.5s1.3-.5,2.1-.5,1.6.2,2.2.6c.6.4,1.1,1,1.3,1.7v-5.2h.7v11.4h-.7v-2.2c-.2.7-.7,1.2-1.3,1.7-.6.4-1.4.6-2.2.6s-1.5-.2-2.1-.5c-.6-.4-1.1-.9-1.4-1.5-.3-.6-.5-1.4-.5-2.3s.2-1.6.5-2.3h0ZM87.1,127c-.3-.6-.7-1-1.2-1.3s-1.1-.4-1.8-.4-1.3.2-1.8.4-.9.7-1.2,1.3-.4,1.2-.4,2,.1,1.4.4,2,.7,1,1.2,1.3,1.1.4,1.8.4,1.2-.1,1.8-.4.9-.7,1.2-1.3c.3-.6.4-1.2.4-1.9s-.2-1.4-.4-1.9h0Z"/>
        <path class="cls-2" d="M97.8,124.7v8.4h-.7v-1.8c-.2.6-.6,1.1-1.2,1.4s-1.2.5-1.9.5-1.8-.3-2.4-.9c-.6-.6-.9-1.5-.9-2.7v-4.9h.7v4.8c0,1,.2,1.8.8,2.3s1.2.8,2.1.8,1.6-.3,2.2-.9.8-1.4.8-2.6v-4.5h.7Z"/>
        <path class="cls-2" d="M102.1,125c.5-.3,1.2-.5,2-.5v.7h-.2c-.8,0-1.5.2-2.1.7s-.8,1.2-.8,2.3v4.8h-.7v-8.4h.7v1.7c.2-.6.6-1.1,1.1-1.4h0Z"/>
        <path class="cls-2" d="M105.8,126.6c.3-.7.8-1.1,1.4-1.5s1.3-.5,2.1-.5,1.6.2,2.2.7,1.1,1,1.3,1.7v-2.2h.7v8.4h-.7v-2.2c-.2.7-.7,1.2-1.3,1.7s-1.4.6-2.2.6-1.5-.2-2.1-.5c-.6-.4-1.1-.9-1.4-1.5-.3-.6-.5-1.4-.5-2.3s.2-1.6.5-2.3h0ZM112.4,127c-.3-.6-.7-1-1.2-1.3s-1.1-.4-1.8-.4-1.3.2-1.8.4-.9.7-1.2,1.3-.4,1.2-.4,2,.1,1.4.4,2,.7,1,1.2,1.3,1.1.4,1.8.4,1.2-.1,1.8-.4.9-.7,1.2-1.3c.3-.6.4-1.2.4-1.9s-.2-1.4-.4-1.9h0Z"/>
        <path class="cls-2" d="M116.8,121.7v11.4h-.7v-11.4h.7Z"/>
        <path class="cls-2" d="M125.6,125.3c.6-.4,1.4-.7,2.3-.7s1.5.2,2.1.5c.6.3,1.1.8,1.4,1.5.3.7.5,1.4.5,2.3s-.2,1.6-.5,2.3c-.3.6-.8,1.1-1.4,1.5-.6.4-1.3.5-2.1.5s-1.6-.2-2.2-.6c-.6-.4-1.1-1-1.3-1.6v6.1h-.7v-12.3h.7v2.2c.2-.7.7-1.2,1.3-1.7h0ZM130.8,126.9c-.3-.6-.7-1-1.2-1.3s-1.1-.4-1.8-.4-1.2.2-1.8.4c-.5.3-.9.7-1.2,1.3s-.4,1.2-.4,1.9.2,1.4.4,1.9c.3.6.7,1,1.2,1.3.5.3,1.1.4,1.8.4s1.3-.1,1.8-.4c.5-.3.9-.7,1.2-1.3s.4-1.2.4-2-.1-1.4-.4-2h0Z"/>
        <path class="cls-2" d="M134.7,121.7v11.4h-.7v-11.4h.7Z"/>
        <path class="cls-2" d="M137.3,126.6c.3-.7.8-1.1,1.4-1.5.6-.3,1.3-.5,2.1-.5s1.6.2,2.2.7,1.1,1,1.3,1.7v-2.2h.7v8.4h-.7v-2.2c-.2.7-.7,1.2-1.3,1.7-.6.4-1.4.6-2.2.6s-1.5-.2-2.1-.5-1.1-.9-1.4-1.5-.5-1.4-.5-2.3.2-1.6.5-2.3h0ZM143.9,127c-.3-.6-.7-1-1.2-1.3s-1.1-.4-1.8-.4-1.3.2-1.8.4-.9.7-1.2,1.3-.4,1.2-.4,2,.1,1.4.4,2,.7,1,1.2,1.3,1.1.4,1.8.4,1.2-.1,1.8-.4.9-.7,1.2-1.3.4-1.2.4-1.9-.1-1.4-.4-1.9h0Z"/>
        <path class="cls-2" d="M153.8,125.5c.6.6.9,1.5.9,2.7v4.9h-.7v-4.9c0-1-.2-1.8-.8-2.3s-1.2-.8-2.1-.8-1.6.3-2.2.9c-.5.6-.8,1.4-.8,2.6v4.5h-.7v-8.4h.7v1.8c.2-.6.6-1.1,1.2-1.4.6-.3,1.2-.5,1.9-.5s1.8.3,2.4.9h0Z"/>
        <path class="cls-2" d="M164.7,129.2h-7.2c0,.8.2,1.4.5,1.9.3.5.7.9,1.2,1.1.5.3,1.1.4,1.6.4s1.5-.2,2.1-.6.9-1,1.1-1.7h.7c-.2.9-.6,1.5-1.3,2.1-.7.5-1.5.8-2.6.8s-1.5-.2-2.1-.5-1.1-.9-1.4-1.5-.5-1.4-.5-2.3.2-1.6.5-2.3c.3-.7.8-1.1,1.4-1.5.6-.3,1.3-.5,2.1-.5s1.5.2,2.1.5c.6.3,1,.8,1.4,1.4.3.6.5,1.2.5,1.8s0,.6,0,.8h0ZM163.7,126.7c-.3-.5-.7-.9-1.2-1.2s-1.1-.4-1.6-.4-1.1.1-1.6.4c-.5.2-.9.6-1.2,1.2-.3.5-.5,1.1-.5,1.9h6.6c0-.7-.1-1.4-.4-1.9h0Z"/>
        <path class="cls-2" d="M167.9,125.3v5.5c0,.6.1,1,.3,1.3.2.2.6.4,1.2.4h.9v.6h-1.1c-.7,0-1.3-.2-1.6-.5s-.5-.9-.5-1.7v-5.5h-1.3v-.6h1.3v-2.1h.7v2.1h2.5v.6h-2.5,0Z"/>
        <path class="cls-2" d="M178.5,125.3c.6-.4,1.4-.7,2.2-.7s1.5.2,2.1.5c.6.3,1.1.8,1.4,1.5.3.7.5,1.4.5,2.3s-.2,1.6-.5,2.3c-.3.6-.8,1.1-1.4,1.5-.6.4-1.3.5-2.1.5s-1.6-.2-2.2-.6c-.6-.4-1.1-1-1.3-1.7v2.2h-.7v-11.4h.7v5.2c.3-.7.7-1.2,1.3-1.7h0ZM183.6,126.9c-.3-.6-.7-1-1.2-1.3s-1.1-.4-1.8-.4-1.2.2-1.8.4c-.5.3-.9.7-1.2,1.3s-.4,1.2-.4,1.9.1,1.4.4,1.9.7,1,1.2,1.3c.5.3,1.1.4,1.8.4s1.3-.1,1.8-.4c.5-.3.9-.7,1.2-1.3s.4-1.2.4-2-.1-1.4-.4-2h0Z"/>
        <path class="cls-2" d="M193.9,124.7v8.4h-.7v-1.8c-.2.6-.6,1.1-1.2,1.4-.6.3-1.2.5-1.9.5s-1.8-.3-2.4-.9c-.6-.6-.9-1.5-.9-2.7v-4.9h.7v4.8c0,1,.2,1.8.8,2.3s1.2.8,2.1.8,1.6-.3,2.2-.9c.5-.6.8-1.4.8-2.6v-4.5h.7Z"/>
        <path class="cls-2" d="M196.4,122.7c-.1-.1-.2-.2-.2-.4s0-.3.2-.4.2-.2.4-.2.3,0,.4.2c.1.1.2.3.2.4s0,.3-.2.4-.2.2-.4.2-.3,0-.4-.2ZM197.2,124.7v8.4h-.7v-8.4h.7Z"/>
        <path class="cls-2" d="M200.4,121.7v11.4h-.7v-11.4h.7Z"/>
        <path class="cls-2" d="M203,126.6c.3-.7.8-1.1,1.4-1.5.6-.3,1.3-.5,2.1-.5s1.6.2,2.2.6,1.1,1,1.3,1.7v-5.2h.7v11.4h-.7v-2.2c-.2.7-.7,1.2-1.3,1.7-.6.4-1.4.6-2.2.6s-1.5-.2-2.1-.5-1.1-.9-1.4-1.5-.5-1.4-.5-2.3.2-1.6.5-2.3h0ZM209.6,127c-.3-.6-.7-1-1.2-1.3s-1.1-.4-1.8-.4-1.3.2-1.8.4-.9.7-1.2,1.3-.4,1.2-.4,2,.1,1.4.4,2,.7,1,1.2,1.3,1.1.4,1.8.4,1.2-.1,1.8-.4.9-.7,1.2-1.3.4-1.2.4-1.9-.1-1.4-.4-1.9h0Z"/>
        <path class="cls-2" d="M220.8,129.2h-7.2c0,.8.2,1.4.5,1.9.3.5.7.9,1.2,1.1.5.3,1.1.4,1.6.4s1.5-.2,2.1-.6.9-1,1.1-1.7h.7c-.2.9-.6,1.5-1.3,2.1-.7.5-1.5.8-2.6.8s-1.5-.2-2.1-.5-1.1-.9-1.4-1.5-.5-1.4-.5-2.3.2-1.6.5-2.3c.3-.7.8-1.1,1.4-1.5.6-.3,1.3-.5,2.1-.5s1.5.2,2.1.5c.6.3,1,.8,1.4,1.4.3.6.5,1.2.5,1.8s0,.6,0,.8h0ZM219.7,126.7c-.3-.5-.7-.9-1.2-1.2s-1.1-.4-1.6-.4-1.1.1-1.6.4c-.5.2-.9.6-1.2,1.2-.3.5-.5,1.1-.5,1.9h6.6c0-.7-.1-1.4-.4-1.9h0Z"/>
        <path class="cls-2" d="M224.7,125c.5-.3,1.2-.5,2-.5v.7h-.2c-.8,0-1.5.2-2.1.7s-.8,1.2-.8,2.3v4.8h-.7v-8.4h.7v1.7c.2-.6.6-1.1,1.1-1.4h0Z"/>
      </g>
    </g>
  </g>
</svg>